<svg width="40" height="40" viewBox="0 0 40 40" fill="none" xmlns="http://www.w3.org/2000/svg">
<g id="Logo">
<path id="Ellipse 3" d="M36 8C36 10.0904 36 22 36 24C34.2866 26.1431 33.0223 27.1713 32.2667 28C31.3548 29 29.0667 31.8329 28.5333 32.5C27.601 33.6661 24.827 37.7147 23 40C21.401 40 24.0196 40 20.0103 40C17.9825 40 12.5485 40 10.4165 40C7.75158 40 6.15261 40 5.08664 38.6667C4.02066 37.3333 4.02069 36 4.02067 32C5.28804 32 6.90909 32 6.90909 29.2308C6.90909 26.9231 5.36838 26.6667 4.02066 26.6667C4.02066 25.3666 4.02066 24.0185 4.02066 22.6667C5.45455 22.6667 6.90909 22.0201 6.90909 20C6.90909 17.9799 5.67213 17.3333 4.02066 17.3333C4.02066 15.6328 4.02066 15.0848 4.02066 13.3333C5.45455 13.3333 6.90909 12.9104 6.90909 10.7692C6.90909 8.62809 5.68832 8 4.02066 8C4.02066 5.33333 3.7605 2.92603 5.08664 1.33333C6.19197 0.00581121 7.21859 0 9.35055 2.3048e-06C12.5485 5.76201e-06 17.0979 4.53004e-06 20.0103 4.53004e-06C21.8792 4.53004e-06 28.0052 2.6762e-06 29.6041 0C32.8021 -5.35212e-06 34.0563 0.235535 34.934 1.33334C36 2.66668 36 4 36 8Z" fill="#F7F6FB"/>
<path id="Ellipse 4" d="M36 24C31.5019 29.5362 30.1165 31.2412 29.6899 31.7663C28.8835 32.7588 31.5019 29.5361 23 40C23 39.3333 23 31.244 23 28.6667C23 26.0893 24.6976 24 26.7917 24C28.8858 24 34.9167 24 36 24Z" fill="#4724D0"/>
</g>
</svg>
